<svg xmlns="http://www.w3.org/2000/svg"
	xmlns:xlink="http://www.w3.org/1999/xlink" id="Capa_1" x="0px" y="'0px" viewBox="0 -10 100 100" style="enable-background:new 0 0 262.3 88.3;" xml:space="preserve">
	<style type="text/css">
	.st0{fill:#383838;}
	.st1{fill:#EE730B;}
	</style>
	<g>

		<g>
			<g>
				<path class="st1" d="M18.76,17.13C9.35,19.98,6.24,30.03,5.9,31.05c-1.06,2.71-1.65,5.13-2,7.03c-0.22,1.2-0.52,3.2-0.58,5.68     c-0.06,2.36,0.11,4.13,0.23,5.32c0.2,1.97,0.3,2.96,0.55,3.43c1.56,2.93,8.11,2.27,9.75,2.07c0,0,9.6,9.61,13.66,13.14     c3.15,2.74,9.17,0.52,7.06-2.95c-1.27-2.09-8.02-14.23-9.34-21.39c-1.32-7.16,4.49-14.43,10.46-14.83     c4.5-0.3,5.99,8.28,1.32,12.61c-4.67,4.34,9.14,14.61,19.02,12.92c6.82-1.17,11.87-11.83,14.48-22.55     c-6.46,9.05-15.87,8.09-17.24,5.79c-0.51-1.21,0.99-1.41,2.11-5.64c-6.48,4.4-13.12-5.22-18.87-10.18     C32.04,17.65,25.91,14.97,18.76,17.13z"></path>
			</g>
			<g>
				<path class="st1" d="M49.68,30.12c2.74,1.37,6.42,0.07,8.03-1.53c0.11-0.11,0.27-0.14,0.41-0.08c0.14,0.06,0.24,0.2,0.23,0.35     c-0.29,4.02-2.53,6.58-3.02,7.45c-0.38,0.66,2.23,1.07,3.79,0.85c3.18-0.46,9.09-2.36,12.83-10.77c0.03-0.06,0.07-0.11,0.12-0.14     c0.07-0.05,0.16-0.07,0.17-0.07c0.24,0.08-2.32,26.26-15.6,30.19c-5.56,1.65-11.79,0.32-23.01-4.19     c-0.93-0.38-1.92-0.91-3.33,1.35c0,0,5.88,10.83,6.2,11.99c0.95,3.43-4.39,7.08-7.7,4.91c-6.99-4.59-15.16-13.81-15.16-13.81     c-6.02,0.98-8.65-0.96-8.65-0.96c5.27,15.07,19.18,26,35.33,26c21.71,0,37.93-18.08,38.09-38.71     C78.59,21.66,62.46,3.28,40.62,3.28c-12.86,0-24.87,6.89-31.29,17.35c0.07-0.09,0.14-0.18,0.22-0.26     c3.78-4.21,10.14-6.33,15.95-5.76c5.83,0.56,10.02,3.73,11.13,4.74C41.53,23.81,46.1,28.32,49.68,30.12z"></path>
			</g>
		</g>

	</g>
</svg>